<svg width="40.000000" height="40.000000" viewBox="0 0 44 44" fill="none" xmlns="http://www.w3.org/2000/svg" xmlns:xlink="http://www.w3.org/1999/xlink">
	<desc>
			Created with Pixso.
	</desc>
	<defs>
		<clipPath id="clip11_962">
			<rect id="account" rx="5.000000" width="43.000000" height="43.000000" transform="translate(0.500000 0.500000)" fill="white" fill-opacity="0"/>
		</clipPath>
	</defs>
	<g clip-path="url(#clip11_962)">
		<path id="Vector" d="M21.9999 22.5132C18.3832 22.5132 15.4513 19.712 15.4513 16.2566C15.4513 12.8012 18.3832 10 21.9999 10C25.6165 10 28.5485 12.8012 28.5485 16.2566C28.5485 19.712 25.6165 22.5132 21.9999 22.5132Z" stroke="#FFFFFF" stroke-opacity="1.000000" stroke-width="2.500000"/>
		<path id="Vector" d="M10 33.9782L10.4229 31.7398C10.9224 29.1547 12.354 26.8185 14.4689 25.1369C16.5839 23.4554 19.2485 22.5348 22 22.5351C24.7548 22.5357 27.422 23.4594 29.5374 25.1453C31.6528 26.8312 33.0823 29.1726 33.5771 31.7617L34 34.0001" stroke="#FFFFFF" stroke-opacity="1.000000" stroke-width="2.500000"/>
	</g>
	<rect id="account" rx="5.000000" width="43.000000" height="43.000000" transform="translate(0.500000 0.500000)" stroke="#FFFFFF" stroke-opacity="1.000000" stroke-width="1.000000"/>
</svg>
