<svg width="40.000000" height="40.000000" viewBox="0 0 44 44" fill="none" xmlns="http://www.w3.org/2000/svg" xmlns:xlink="http://www.w3.org/1999/xlink">
	<desc>
			Created with Pixso.
	</desc>
	<defs>
		<clipPath id="clip11_955">
			<rect id="cart" rx="5.000000" width="43.000000" height="43.000000" transform="translate(0.500000 0.500000)" fill="white" fill-opacity="0"/>
		</clipPath>
	</defs>
	<g clip-path="url(#clip11_955)">
		<path id="Vector" d="M18.8421 31.9999C18.8421 33.1044 17.9938 33.9999 16.9473 33.9999C15.9009 33.9999 15.0526 33.1044 15.0526 31.9999C15.0526 30.8954 15.9009 29.9999 16.9473 29.9999C17.9938 29.9999 18.8421 30.8954 18.8421 31.9999Z" stroke="#FFFFFF" stroke-opacity="1.000000" stroke-width="2.000000"/>
		<path id="Vector" d="M30.2106 32C30.2106 33.1046 29.3623 34 28.3159 34C27.2695 34 26.4211 33.1046 26.4211 32C26.4211 30.8954 27.2695 30 28.3159 30C29.3623 30 30.2106 30.8954 30.2106 32Z" stroke="#FFFFFF" stroke-opacity="1.000000" stroke-width="2.000000"/>
		<path id="Vector" d="M10 10L10.33 10.1225C11.9741 10.7326 12.7961 11.0377 13.2663 11.764C13.7365 12.4903 13.7365 13.455 13.7365 15.3845L13.7365 19.0133C13.7365 22.9354 13.8164 24.2297 14.9108 25.4482C16.0052 26.6666 17.7666 26.6666 21.2895 26.6666L22.6316 26.6666M27.9879 26.6666C29.9597 26.6666 30.9456 26.6666 31.6425 26.0671C32.3394 25.4677 32.5384 24.4485 32.9365 22.4099L33.5677 19.1769C34.0062 16.8582 34.2253 15.6989 33.6647 14.9294C33.1039 14.16 31.188 14.16 29.0596 14.16L21.3981 14.16M13.7365 14.16L16.3158 14.16" stroke="#FFFFFF" stroke-opacity="1.000000" stroke-width="2.500000"/>
	</g>
	<rect id="cart" rx="5.000000" width="43.000000" height="43.000000" transform="translate(0.500000 0.500000)" stroke="#FFFFFF" stroke-opacity="1.000000" stroke-width="1.000000"/>
</svg>
