<svg width="80.500000" height="76.500000" viewBox="0 0 84.5 89.5" fill="none" xmlns="http://www.w3.org/2000/svg" xmlns:xlink="http://www.w3.org/1999/xlink">
	<desc>
			Created with Pixso.
	</desc>
	<defs/>
	<path id="Vector" d="M35.3601 61.5C36.3856 38.0323 25.2177 30.1185 16.4026 25.2077C18.5519 16.2923 26.2705 11.4754 26.2705 11.4754" stroke="#F4F2F2" stroke-opacity="1.000000" stroke-width="3.000000" stroke-linejoin="round" stroke-linecap="round"/>
	<path id="Vector" d="M33.4964 10.4708C33.4964 10.4708 29.9089 15.3831 26.6833 15.4862C26.6833 15.4862 25.6341 6.51385 26.0378 4.70615C28.6579 2.11539 34.3019 1.5 37.5275 1.5C40.7531 1.5 43.3333 3.34154 43.7769 7.36769C46.8408 7.40154 49.7427 8.59539 50.3482 9.72154C50.1464 12.5862 47.4044 14.0523 44.7443 14.9062C42.0841 15.76 39.9076 17.1569 39.9076 18.5215C39.9076 19.8862 40.6313 25.0354 45.1461 25.7523C49.6609 26.4692 56.7977 28.3446 56.7977 34.5185C56.7977 40.6923 54.3394 39.6692 54.3394 45.7185C54.3394 51.7677 55.0903 50.4031 55.0903 53.4954C55.0903 56.5877 53.9084 59.3169 52.7265 61.1354" stroke="#F4F2F2" stroke-opacity="1.000000" stroke-width="3.000000" stroke-linejoin="round" stroke-linecap="round"/>
	<path id="Vector" d="M46.6516 60.5907C46.6516 60.5907 47.9972 55.3138 47.9972 52.8138C47.9972 50.3138 45.4843 47.06 42.8351 44.24C40.5513 41.8077 34.5928 43.9261 34.8091 50.2461M53.5448 28.6415C59.5524 29.1646 63.7453 24.7061 60.1979 19.34M16.4026 25.2077C16.779 26.6169 17.0882 29.4369 17.0882 29.4369C15.0298 29.4369 13.1625 30.9092 11.9933 31.5584C9.60773 32.8815 7.1094 33.3246 7.19668 35.7123C8.05672 37.623 11.9133 37.8384 14.7098 37.7938L14.648 39.123C11.8642 41.3754 6.60574 46.4246 6.60574 52.6307C6.60574 59.8615 12.8552 61.1354 16.4026 61.1354C19.9501 61.1354 37.6402 53.5692 31.8381 40.3507" stroke="#F4F2F2" stroke-opacity="1.000000" stroke-width="3.000000" stroke-linejoin="round"/>
	<path id="Vector" d="M1.87639 40.9431C3.54193 41.08 5.36931 41.3062 5.36931 43.5354C5.36931 45.7647 1.5 47.8539 1.5 53.0846C1.5 58.3154 5.65296 61.1354 16.4027 61.1354M54.9248 51.577C53.9084 48.22 49.2863 44.5354 47.9972 43.9908C46.708 43.4462 46.6317 48.9693 47.5681 50.8339" stroke="#F4F2F2" stroke-opacity="1.000000" stroke-width="3.000000" stroke-linejoin="round"/>
	<path id="ZooExpress" d="M10.4312 85.5L10.4312 83.9585L4.48047 83.9585L10.25 76.9175L10.25 75.7007L2.17334 75.7007L2.17334 77.2388L7.84033 77.2388L2.07422 84.2832L2.07422 85.5L10.4312 85.5ZM37.3666 85.5L37.3666 83.9756L31.8397 83.9756L31.8397 81.272L36.5702 81.272L36.5702 79.7749L31.8397 79.7749L31.8397 77.2251L37.1717 77.2251L37.1717 75.7007L30.0179 75.7007L30.0179 85.5L37.3666 85.5ZM13.3215 85.2177Q14.1479 85.5991 15.1503 85.5991Q16.2159 85.5991 17.0755 85.1783Q17.1423 85.1456 17.2079 85.1104Q17.7276 84.829 18.1166 84.4227Q18.4082 84.118 18.6264 83.7432Q18.7226 83.5789 18.8008 83.4064Q19.1391 82.6603 19.1391 81.7607Q19.1391 80.8582 18.7964 80.1132Q18.7199 79.947 18.6264 79.7886Q18.4157 79.4294 18.1365 79.1352Q17.7409 78.7182 17.2079 78.4316Q17.1329 78.391 17.0562 78.3537Q16.2039 77.9395 15.1503 77.9395Q14.1593 77.9395 13.3404 78.3148Q13.2216 78.3693 13.1064 78.4316Q12.5779 78.7157 12.1834 79.128Q11.8992 79.425 11.6845 79.7886Q11.5962 79.9391 11.5232 80.0967Q11.1752 80.8482 11.1752 81.7607Q11.1752 82.6703 11.5187 83.4231Q11.5935 83.5868 11.6845 83.7432Q11.9068 84.1225 12.2035 84.4299Q12.5913 84.8315 13.1064 85.1104Q13.2124 85.1674 13.3215 85.2177ZM22.3515 85.2177Q23.1779 85.5991 24.1803 85.5991Q25.2459 85.5991 26.1055 85.1783Q26.1723 85.1456 26.2379 85.1104Q26.7576 84.829 27.1466 84.4227Q27.4382 84.118 27.6564 83.7432Q27.7526 83.5789 27.8308 83.4064Q28.1691 82.6603 28.1691 81.7607Q28.1691 80.8582 27.8264 80.1132Q27.7499 79.947 27.6564 79.7886Q27.4457 79.4294 27.1665 79.1352Q26.7709 78.7182 26.2379 78.4316Q26.1629 78.391 26.0862 78.3537Q25.2339 77.9395 24.1803 77.9395Q23.1893 77.9395 22.3704 78.3148Q22.2516 78.3693 22.1364 78.4316Q21.6079 78.7157 21.2134 79.128Q20.9292 79.425 20.7145 79.7886Q20.6262 79.9391 20.5532 80.0967Q20.2052 80.8482 20.2052 81.7607Q20.2052 82.6703 20.5487 83.4231Q20.6235 83.5868 20.7145 83.7432Q20.9368 84.1225 21.2335 84.4299Q21.6213 84.8315 22.1364 85.1104Q22.2424 85.1674 22.3515 85.2177ZM53.0325 78.3256Q52.2375 77.9395 51.255 77.9395Q50.486 77.9395 49.8468 78.2061Q49.5112 78.3468 49.2317 78.5609Q48.9819 78.7524 48.777 79.0024L48.777 78.0249L47.1124 78.0249L47.1124 88.2173L48.8624 88.2173L48.8624 84.5908Q49.151 84.9207 49.5069 85.1427Q50.2386 85.5991 51.255 85.5991Q52.249 85.5991 53.051 85.2068Q53.1315 85.1674 53.2101 85.124Q53.5918 84.912 53.9003 84.6221Q54.288 84.2578 54.5602 83.7705Q54.5787 83.7374 54.5965 83.7039Q55.049 82.8525 55.049 81.7607Q55.049 80.6676 54.5927 79.8202Q54.5767 79.7906 54.5602 79.7612Q54.295 79.2901 53.9201 78.9348Q53.604 78.6353 53.2101 78.418Q53.1225 78.3693 53.0325 78.3256ZM58.7079 78.7126Q58.5238 78.8929 58.381 79.1152L58.381 78.0249L56.7164 78.0249L56.7164 85.5L58.4664 85.5L58.4664 81.8735Q58.4664 80.7833 59.0095 80.1908Q59.0249 80.1741 59.0407 80.1577Q59.1407 80.0541 59.2544 79.9685Q59.793 79.563 60.6368 79.563Q60.818 79.563 61.0436 79.6074L61.0436 77.9395Q59.4971 77.9395 58.7079 78.7126ZM69.4564 82.3213Q69.4838 81.9863 69.4838 81.8052Q69.4838 80.6567 68.9984 79.7817Q68.7383 79.3094 68.3676 78.9517Q68.0516 78.6466 67.6552 78.4248Q67.5572 78.3694 67.4562 78.3203Q66.6724 77.9395 65.7035 77.9395Q64.7845 77.9395 64.017 78.2805Q63.8626 78.3492 63.7143 78.4316Q63.2655 78.6804 62.9168 79.0291Q62.5802 79.3657 62.3368 79.7954Q62.2397 79.9668 62.1616 80.1465Q61.8412 80.884 61.8412 81.7607Q61.8412 82.6703 62.1847 83.4231Q62.2595 83.5868 62.3505 83.7432Q62.5354 84.0588 62.7755 84.3246Q63.201 84.7957 63.7997 85.1104Q64.7396 85.5991 65.9701 85.5991Q66.9374 85.5991 67.7064 85.2915Q68.2671 85.0647 68.6879 84.6836Q68.8443 84.5419 68.9813 84.3789L68.0414 83.3022Q67.7522 83.5964 67.4054 83.7837Q66.797 84.1123 66.0111 84.1123Q65.1328 84.1123 64.5128 83.7121Q64.4524 83.6732 64.3944 83.6304Q64.1176 83.425 63.9309 83.1568Q63.6795 82.7959 63.5912 82.3213L69.4564 82.3213ZM72.246 85.4869Q72.8501 85.5991 73.475 85.5991Q75.0404 85.5991 75.9496 84.9702Q76.4655 84.6127 76.6898 84.1219Q76.8622 83.7446 76.8622 83.2886Q76.8622 82.521 76.4813 82.0903Q76.4653 82.0722 76.4486 82.0547Q76.2489 81.8451 76.0117 81.6944Q75.7578 81.5331 75.4608 81.4395Q74.8866 81.2583 73.9911 81.1182Q73.0956 80.9644 72.6684 80.79Q72.4189 80.6863 72.3151 80.5009Q72.2411 80.3688 72.2411 80.1953Q72.2411 80.0767 72.2802 79.9728Q72.3661 79.7443 72.641 79.5869Q73.0409 79.3545 73.81 79.3545Q74.7122 79.3545 75.4787 79.677Q75.7227 79.7797 75.953 79.915L76.6229 78.5854Q76.1342 78.2915 75.3617 78.1172Q74.5927 77.9395 73.8236 77.9395Q72.3129 77.9395 71.4242 78.5786Q70.9506 78.9174 70.7294 79.3775Q70.5355 79.7808 70.5355 80.2773Q70.5355 81.0473 70.9153 81.4958Q70.9367 81.5211 70.9594 81.5454Q71.2137 81.816 71.5225 81.9897Q71.7325 82.1078 71.9677 82.1812Q72.5487 82.3623 73.475 82.5024Q74.3568 82.6426 74.7533 82.7998Q74.9827 82.888 75.0805 83.0539Q75.1532 83.1771 75.1532 83.3433Q75.1532 83.5232 75.079 83.664Q74.812 84.1704 73.5844 84.1704Q72.9008 84.1704 72.1933 83.9688Q71.4857 83.7637 70.9833 83.4287L70.31 84.7583Q70.8295 85.1206 71.6942 85.3599Q71.9679 85.4353 72.246 85.4869ZM79.456 85.4869Q80.0601 85.5991 80.685 85.5991Q82.2504 85.5991 83.1596 84.9702Q83.6755 84.6127 83.8998 84.1219Q84.0722 83.7446 84.0722 83.2886Q84.0722 82.521 83.6913 82.0903Q83.6753 82.0722 83.6586 82.0547Q83.4589 81.8451 83.2217 81.6944Q82.9678 81.5331 82.6708 81.4395Q82.0966 81.2583 81.2011 81.1182Q80.3056 80.9644 79.8783 80.79Q79.6289 80.6863 79.5251 80.5009Q79.4511 80.3688 79.4511 80.1953Q79.4511 80.0767 79.4902 79.9728Q79.5761 79.7443 79.851 79.5869Q80.2509 79.3545 81.02 79.3545Q81.9222 79.3545 82.6887 79.677Q82.9327 79.7797 83.163 79.915L83.8329 78.5854Q83.3442 78.2915 82.5717 78.1172Q81.8027 77.9395 81.0336 77.9395Q79.5229 77.9395 78.6342 78.5786Q78.1606 78.9174 77.9394 79.3775Q77.7455 79.7808 77.7455 80.2773Q77.7455 81.0473 78.1253 81.4958Q78.1467 81.5211 78.1694 81.5454Q78.4237 81.816 78.7325 81.9897Q78.9425 82.1078 79.1777 82.1812Q79.7587 82.3623 80.685 82.5024Q81.5668 82.6426 81.9633 82.7998Q82.1927 82.888 82.2905 83.0539Q82.3632 83.1771 82.3632 83.3433Q82.3632 83.5232 82.289 83.664Q82.022 84.1704 80.7944 84.1704Q80.1108 84.1704 79.4033 83.9688Q78.6957 83.7637 78.1933 83.4287L77.52 84.7583Q78.0395 85.1206 78.9042 85.3599Q79.1779 85.4353 79.456 85.4869ZM41.9308 82.9092L43.8517 85.5L45.8238 85.5L42.8981 81.6787L45.6974 78.0249L43.8072 78.0249L41.9752 80.4756L40.1398 78.0249L38.1949 78.0249L40.9806 81.7061L38.0685 85.5L39.9996 85.5L41.9308 82.9092ZM64.6667 79.5785Q65.1233 79.3408 65.7035 79.3408Q66.3154 79.3408 66.7836 79.6002Q66.9692 79.7031 67.1322 79.8467Q67.3383 80.027 67.485 80.247Q67.7469 80.6399 67.8192 81.1592L63.5775 81.1592Q63.6605 80.604 63.9514 80.1979Q64.0922 80.0014 64.2816 79.8398Q64.4617 79.6852 64.6667 79.5785ZM16.2206 83.8512Q15.7506 84.0986 15.1503 84.0986Q14.5433 84.0986 14.0722 83.8456Q13.7926 83.6954 13.5609 83.4561Q13.4227 83.3132 13.3151 83.1501Q12.9389 82.5795 12.9389 81.7607Q12.9389 80.95 13.3102 80.3821Q13.4195 80.215 13.5609 80.0688Q13.7958 79.8249 14.0799 79.6731Q14.5482 79.4229 15.1503 79.4229Q15.7456 79.4229 16.2128 79.6675Q16.5047 79.8204 16.7465 80.0688Q16.8969 80.2225 17.0113 80.3995Q17.3754 80.9624 17.3754 81.7607Q17.3754 82.567 17.0065 83.1327Q16.8937 83.3056 16.7465 83.4561Q16.5079 83.6998 16.2206 83.8512ZM25.2506 83.8512Q24.7806 84.0986 24.1803 84.0986Q23.5733 84.0986 23.1022 83.8456Q22.8226 83.6954 22.5909 83.4561Q22.4527 83.3132 22.3451 83.1501Q21.9689 82.5795 21.9689 81.7607Q21.9689 80.95 22.3402 80.3821Q22.4495 80.215 22.5909 80.0688Q22.8258 79.8249 23.1099 79.6731Q23.5782 79.4229 24.1803 79.4229Q24.7756 79.4229 25.2428 79.6675Q25.5347 79.8204 25.7765 80.0688Q25.9269 80.2225 26.0413 80.3995Q26.4054 80.9624 26.4054 81.7607Q26.4054 82.567 26.0365 83.1327Q25.9237 83.3056 25.7765 83.4561Q25.5379 83.6998 25.2506 83.8512ZM52.1383 83.8456Q51.6672 84.0986 51.0602 84.0986Q50.5614 84.0986 50.14 83.918Q50.0301 83.8709 49.9254 83.8115Q49.7532 83.7131 49.6055 83.5862Q49.3222 83.3428 49.129 82.9946Q48.8351 82.4614 48.8351 81.7607Q48.8351 81.0635 49.129 80.5303Q49.3266 80.1719 49.6184 79.9246Q49.7607 79.8041 49.9254 79.71Q50.0301 79.6506 50.14 79.6034Q50.5614 79.4229 51.0602 79.4229Q51.6623 79.4229 52.1306 79.6731Q52.4147 79.8249 52.6495 80.0688Q52.791 80.215 52.9003 80.3821Q53.2716 80.95 53.2716 81.7607Q53.2716 82.5795 52.8954 83.1501Q52.7878 83.3132 52.6495 83.4561Q52.4179 83.6954 52.1383 83.8456Z" fill="#FFF9F9" fill-opacity="1.000000" fill-rule="evenodd"/>
</svg>
